<svg xmlns="http://www.w3.org/2000/svg" width="600" height="800" viewBox="0 0 600 800">
  <rect width="100%" height="100%" fill="#ffffff"/>
  <!-- Border -->
  <rect x="10" y="10" width="580" height="780" fill="none" stroke="#e5e7eb" stroke-width="2" rx="12"/>
  <!-- Header -->
  <rect x="30" y="30" width="540" height="80" fill="#ffffff"/>
  <rect x="30" y="115" width="540" height="2" fill="#e5e7eb"/>
  <!-- Logo -->
  <rect x="40" y="45" width="50" height="50" fill="#d1d5db" rx="6"/>
  <!-- Doctor info -->
  <rect x="110" y="48" width="150" height="14" fill="#9ca3af" rx="4"/>
  <rect x="110" y="68" width="110" height="10" fill="#cbd5e1" rx="4"/>
  <rect x="110" y="85" width="90" height="10" fill="#cbd5e1" rx="4"/>

  <!-- Body -->
  <rect x="40" y="140" width="220" height="12" fill="#d1d5db" rx="3"/>
  <rect x="40" y="170" width="320" height="8" fill="#e5e7eb" rx="3"/>
  <rect x="40" y="190" width="300" height="8" fill="#e5e7eb" rx="3"/>
  <rect x="40" y="210" width="340" height="8" fill="#e5e7eb" rx="3"/>
  <rect x="40" y="240" width="260" height="8" fill="#e5e7eb" rx="3"/>

  <!-- Footer accent -->
  <rect x="40" y="730" width="200" height="6" fill="#3b82f6" rx="3"/>
  <text x="40" y="760" font-family="Segoe UI, Helvetica, Arial" font-size="12" fill="#6b7280">Prévia Clássico</text>
</svg>